<?xml version="1.0" standalone="no"?>
<!DOCTYPE svg PUBLIC "-//W3C//DTD SVG 20010904//EN"
 "http://www.w3.org/TR/2001/REC-SVG-20010904/DTD/svg10.dtd">
<svg version="1.0" xmlns="http://www.w3.org/2000/svg"
 width="920.000000pt" height="578.000000pt" viewBox="0 0 920.000000 578.000000"
 preserveAspectRatio="xMidYMid meet">
<metadata>
Created by potrace 1.16, written by Peter Selinger 2001-2019
</metadata>
<g transform="translate(0.000000,578.000000) scale(0.100000,-0.100000)"
fill="#000000" stroke="none">
<path d="M925 5300 c2 -3 -2 -18 -10 -33 -7 -14 -11 -28 -8 -30 2 -3 -1 -8 -7
-12 -6 -3 -9 -3 -8 2 2 4 -1 8 -7 8 -5 0 -9 -4 -7 -10 2 -5 -5 -2 -15 8 -13
11 -23 13 -29 7 -6 -6 -11 1 -12 22 -6 72 -12 34 -12 -70 0 -67 -4 -112 -10
-112 -5 0 -33 9 -62 20 -29 11 -54 20 -54 20 -1 0 23 -37 53 -82 54 -81 128
-222 152 -290 l12 -33 23 56 c32 79 118 238 162 299 l36 51 -53 -21 c-30 -11
-58 -20 -64 -20 -6 0 -10 30 -11 68 -2 123 -4 155 -9 150 -3 -2 -6 -17 -7 -31
-2 -17 -6 -23 -12 -17 -6 6 -16 4 -27 -6 -16 -14 -17 -14 -14 3 2 10 4 25 5
33 1 10 4 9 10 -5 8 -18 9 -17 7 6 0 14 -7 26 -14 26 -6 0 -10 -3 -8 -7z"/>
<path d="M1210 4975 l0 -95 840 0 840 0 0 -770 0 -770 -722 2 -723 3 -3 323
-2 322 365 0 365 0 0 95 0 95 -460 0 -460 0 0 -515 0 -515 385 0 385 0 0 -380
0 -380 95 0 95 0 0 380 0 380 735 0 735 0 0 -300 0 -300 -405 0 -405 0 0 -399
0 -399 -757 0 -758 1 -3 -96 -3 -97 856 0 855 0 2 398 3 397 403 3 402 2 0
490 0 490 -395 0 -395 0 0 770 0 770 1135 0 1135 0 0 -395 0 -395 95 0 95 0 0
395 0 395 1565 0 1565 0 0 -770 0 -770 -415 0 -415 0 0 -475 0 -475 95 0 95 0
0 380 0 380 320 0 320 0 0 -745 0 -745 -785 0 -785 0 0 -95 0 -95 785 0 785 0
0 -350 0 -350 95 0 95 0 0 2150 0 2150 -3825 0 -3825 0 0 -95z"/>
<path d="M400 2828 l0 -2148 3815 -2 3815 -3 0 98 0 97 -1235 0 -1235 0 0 345
0 345 410 0 410 0 0 365 0 365 405 0 405 0 0 850 0 850 420 0 420 0 0 95 0 95
-918 0 -919 0 -6 -317 c-4 -174 -7 -383 -7 -465 l0 -148 95 0 95 0 0 138 c0
75 3 242 7 370 l6 232 309 0 308 0 -2 -752 -3 -753 -725 0 -725 0 -3 428 -2
427 -405 0 -405 0 0 420 0 420 -475 0 -475 0 0 -95 0 -95 380 0 380 0 0 -420
0 -420 405 0 405 0 0 -430 0 -430 420 0 420 0 0 -269 0 -269 -727 2 -728 1 -3
318 -2 317 -95 0 -95 0 0 -415 0 -415 415 0 415 0 0 -345 0 -345 -750 0 -750
0 0 395 0 395 -95 0 -95 0 0 -397 0 -398 -1545 3 -1545 2 0 710 0 710 380 0
381 0 -3 97 -3 97 -377 0 -378 0 -2 1243 -3 1244 -92 2 -93 3 0 -2148z"/>
</g>
</svg>
